<?xml version="1.0" standalone="no"?>
<!DOCTYPE svg PUBLIC "-//W3C//DTD SVG 20010904//EN"
 "http://www.w3.org/TR/2001/REC-SVG-20010904/DTD/svg10.dtd">
<svg version="1.0" xmlns="http://www.w3.org/2000/svg"
 width="96.000000pt" height="96.000000pt" viewBox="0 0 96.000000 96.000000"
 preserveAspectRatio="xMidYMid meet">
<metadata>
Created by potrace 1.14, written by Peter Selinger 2001-2017
</metadata>
<g transform="translate(0.000000,96.000000) scale(0.100000,-0.100000)"
fill="#000000" stroke="none">
<path d="M386 869 c-164 -41 -292 -192 -303 -359 -16 -222 148 -411 369 -426
68 -5 93 -1 196 31 16 6 22 3 22 -9 0 -20 3 -20 50 4 22 11 44 20 50 20 6 0
24 -29 41 -65 29 -63 30 -64 57 -53 44 19 45 24 18 83 -14 32 -26 63 -26 69 0
7 22 23 49 36 l49 23 -46 39 c-26 22 -51 44 -55 48 -5 4 -1 31 7 61 72 241
-108 493 -362 505 -42 2 -94 -1 -116 -7z"/>
</g>
</svg>
